<?xml version="1.0" standalone="no"?>
<!DOCTYPE svg PUBLIC "-//W3C//DTD SVG 20010904//EN"
 "http://www.w3.org/TR/2001/REC-SVG-20010904/DTD/svg10.dtd">
<svg version="1.0" xmlns="http://www.w3.org/2000/svg"
 width="700.000000pt" height="700.000000pt" viewBox="0 0 700.000000 700.000000"
 preserveAspectRatio="xMidYMid meet">
<metadata>
Created by potrace 1.11, written by Peter Selinger 2001-2013
</metadata>
<g transform="translate(0.000000,700.000000) scale(0.100000,-0.100000)"
fill="#000000" stroke="none">
<path d="M1260 6775 c0 -2 42 -62 93 -132 129 -177 227 -324 323 -487 l83
-139 -57 -41 c-318 -235 -617 -570 -814 -911 -189 -329 -330 -728 -374 -1060
-3 -27 -8 -57 -9 -66 -26 -135 -26 -619 0 -780 42 -265 71 -389 132 -569 197
-582 544 -1064 1040 -1449 51 -39 95 -71 98 -71 3 0 26 -15 52 -34 158 -112
421 -245 648 -328 146 -53 414 -123 545 -142 203 -30 280 -34 520 -31 129 2
253 6 275 9 22 3 60 8 85 11 146 17 466 92 575 135 106 41 189 70 192 66 4 -4
8 -29 18 -131 6 -63 16 -166 20 -200 1 -11 3 -38 5 -60 l2 -40 8 35 c5 19 11
55 14 80 3 25 8 56 10 70 2 14 7 49 10 78 3 28 8 67 11 85 2 17 7 57 10 86 3
30 7 55 8 56 1 1 49 25 107 55 481 243 913 651 1204 1132 56 94 174 326 191
378 1 3 7 19 14 35 23 53 98 278 114 340 9 33 21 83 29 110 7 28 13 52 13 55
1 3 5 25 9 50 13 69 13 72 21 120 25 162 30 248 29 480 0 205 -9 313 -40 510
-11 72 -65 288 -95 380 -100 312 -232 573 -441 872 -159 226 -457 517 -718
700 -381 267 -870 454 -1338 512 -222 28 -565 28 -760 1 -18 -2 -52 -7 -75
-10 -234 -32 -567 -129 -772 -226 l-46 -22 -29 22 c-16 11 -31 21 -34 21 -3 0
-38 20 -78 44 -172 104 -472 255 -697 352 -130 56 -131 57 -131 49z"/>
</g>
</svg>
