<?xml version="1.0" encoding="UTF-8" standalone="no"?>
<!DOCTYPE svg PUBLIC "-//W3C//DTD SVG 1.1//EN" "http://www.w3.org/Graphics/SVG/1.1/DTD/svg11.dtd">
<svg width="100%" height="100%" viewBox="0 0 500 500" version="1.1" xmlns="http://www.w3.org/2000/svg" xmlns:xlink="http://www.w3.org/1999/xlink" xml:space="preserve" xmlns:serif="http://www.serif.com/" style="fill-rule:evenodd;clip-rule:evenodd;stroke-linejoin:round;stroke-miterlimit:2;">
    <g transform="matrix(1.13402,0,0,1.64485,-19.3302,-58.4101)">
        <path d="M422,91.1C422,77.799 406.337,67 387.044,67L87.956,67C68.663,67 53,77.799 53,91.1L53,283.9C53,297.201 68.663,308 87.956,308L387.044,308C406.337,308 422,297.201 422,283.9L422,91.1Z" style="fill:rgb(255,48,48);"/>
    </g>
    <g transform="matrix(1.41603,0,0,1.41603,-158.582,11.6718)">
        <g transform="matrix(0.906367,0.0981244,-0.0732707,0.676796,68.6856,23.3041)">
            <path d="M228,220C233.676,222.831 240.204,222.423 247,221C241.13,225.466 234.989,228.684 228,228C224.498,225.224 224.344,222.552 228,220Z" style="fill:white;"/>
        </g>
        <g transform="matrix(0.764111,0.497256,-0.371307,0.570572,164.49,-42.91)">
            <path d="M228,220C233.676,222.831 240.204,222.423 247,221C241.13,225.466 234.989,228.684 228,228C224.498,225.224 224.344,222.552 228,220Z" style="fill:white;"/>
        </g>
        <g transform="matrix(-0.310265,-0.836912,-0.601197,0.161829,456.259,349.763)">
            <path d="M228,220C233.676,222.831 240.204,222.423 247,221C241.13,225.466 234.989,228.684 228,228C224.498,225.224 224.344,222.552 228,220Z" style="fill:white;"/>
        </g>
        <g transform="matrix(1.34625,0,0,1.34625,-42.4437,-94.2239)">
            <path d="M377,76C342.384,74.794 301.443,89.92 273,109C269.05,114.442 266.588,119.813 268,125C265.673,120.804 265.989,116.452 268,112C251.848,121.554 242.341,133.102 234,145C232.951,148.784 231.092,154.257 231,164C230.209,161.041 229.655,156.31 230,149C218.669,180.22 217.169,199.303 220,214C245.701,219.012 266.312,205.922 285,186C280.203,185.626 275.118,186.769 270,188C275.394,185.374 281.692,183.35 289,182C298.458,167 312.31,152 328,137C322.204,140.392 315.328,142.884 308,145C315.765,140.033 324.417,135.361 331,130C334.926,127.44 343.68,118.879 352,104L341,109L355,98C360.929,94.705 370.292,87.083 377,76Z" style="fill:white;"/>
        </g>
        <g transform="matrix(1.33711,-0.15655,0.15655,1.33711,-67.2382,-63.76)">
            <path d="M168,267C167.212,270.561 164.951,277.358 162,282L172.104,270.849L222.761,218C221.881,217.997 219.218,217.858 217.761,216.536C216.319,215.228 216.079,212.741 216,212L172.104,265.386L168,267Z" style="fill:white;"/>
        </g>
    </g>
</svg>
